<svg xmlns="http://www.w3.org/2000/svg" width="100" height="100" viewBox="0 0 100 100"><defs><style>.a,.b{fill:none;}.b{stroke:#898989;stroke-width:2px;fill-rule:evenodd;}.c{fill:#898989;}</style></defs><rect class="a" width="100" height="100"/><path class="b" d="M34,26H66V21.4a3.706,3.706,0,0,0-2.673-3.559A45.49,45.49,0,0,0,50.586,16a53.817,53.817,0,0,0-13.834,1.939A3.706,3.706,0,0,0,34,21.521Z"/><path class="b" d="M34,84H66V79.4a3.706,3.706,0,0,0-2.673-3.559A45.49,45.49,0,0,0,50.586,74a53.817,53.817,0,0,0-13.834,1.939A3.706,3.706,0,0,0,34,79.521Z" transform="translate(100 158) rotate(180)"/><path class="c" d="M28.917,32.408V67.592a5.843,5.843,0,0,0,6.031,5.622H65.053a5.839,5.839,0,0,0,6.03-5.622V32.408a5.843,5.843,0,0,0-6.03-5.622H34.947A5.839,5.839,0,0,0,28.917,32.408ZM27,32.137A7.422,7.422,0,0,1,34.674,25H65.326A7.425,7.425,0,0,1,73,32.137V67.863A7.422,7.422,0,0,1,65.326,75H34.674A7.425,7.425,0,0,1,27,67.863Z"/><rect class="c" width="2" height="9" rx="1" transform="translate(75 34)"/><rect class="c" width="2" height="15" rx="0.82" transform="translate(75 50)"/></svg>